<svg width="80" height="80" fill="none" xmlns="http://www.w3.org/2000/svg"><path fill-rule="evenodd" clip-rule="evenodd" d="M40 80c22.091 0 40-17.909 40-40S62.091 0 40 0 0 17.909 0 40s17.909 40 40 40zm18.484-19.813c.209-1.458.313-2.708.313-3.75 0-3.49-.234-6.953-.703-10.39a163.715 163.715 0 00-1.719-10.313c-.26-1.406-.573-3.02-.938-4.843a56.228 56.228 0 00-1.25-5.547 41.585 41.585 0 00-1.796-5.625c-.73-1.875-1.641-3.542-2.735-5-1.093-1.459-2.37-2.63-3.828-3.516-1.458-.885-3.177-1.328-5.156-1.328-2.031 0-3.88.52-5.547 1.563-1.667 1.041-3.151 2.395-4.453 4.062-1.302 1.667-2.474 3.568-3.516 5.703A69.061 69.061 0 0024.5 27.61a83.639 83.639 0 00-1.875 6.25c-.52 2.032-.938 3.802-1.25 5.313a159.067 159.067 0 00-1.64 8.672 54.089 54.089 0 00-.704 8.75c0 .885.026 2.005.078 3.36.105 1.301.339 2.577.703 3.827.365 1.25.886 2.344 1.563 3.282.73.885 1.719 1.328 2.969 1.328 1.614 0 2.968-.6 4.062-1.797 1.146-1.198 2.058-2.604 2.735-4.219a22.636 22.636 0 001.562-5.156c.365-1.771.6-3.255.703-4.453A300.755 300.755 0 0044.5 51.125c.052 1.198.104 2.813.156 4.844.104 2.031.365 4.036.782 6.015.416 1.927 1.093 3.594 2.03 5 .99 1.407 2.449 2.11 4.376 2.11 1.458 0 2.63-.443 3.515-1.328.886-.938 1.589-2.058 2.11-3.36.52-1.354.86-2.76 1.015-4.219zm-14.922-25.78c.105 1.406.157 2.421.157 3.046v2.266c-3.021.52-6.094.911-9.219 1.172.052-.417.13-1.094.234-2.032.105-.99.26-2.083.47-3.28.207-1.199.442-2.449.702-3.75a36.456 36.456 0 011.016-3.517c.364-1.093.781-1.979 1.25-2.656.469-.729.963-1.093 1.484-1.093.938 0 1.667.572 2.188 1.718.573 1.094.99 2.37 1.25 3.828.26 1.407.416 2.839.468 4.297z" fill="url(#paint0_linear)"/><defs><linearGradient id="paint0_linear" x1="113" y1="0" x2="10" y2="74.5" gradientUnits="userSpaceOnUse"><stop offset=".087" stop-color="#93F9B9"/><stop offset=".927" stop-color="#1D976C"/></linearGradient></defs></svg>